<svg xmlns="http://www.w3.org/2000/svg" width="50" height="50" fill="#fff" viewBox="0 0 24 24"><path d="M12 2C6.477 2 2 6.477 2 12s4.477 10 10 10 10-4.477 10-10S17.523 2 12 2m0 2c4.41 0 8 3.59 8 8 0 .469-.047.93-.125 1.375a5 5 0 0 0-1.031-.125c-.313-.004-.703.047-1.032.094.114-.348.188-.73.188-1.125 0-.961-.469-1.856-1.219-2.594.207-.77.41-2.09-.125-2.625-1.582 0-2.457 1.129-2.5 1.188A6.5 6.5 0 0 0 12.625 8c-.691 0-1.352.125-1.969.313l.188-.157s-.88-1.219-2.5-1.219c-.567.57-.309 2.016-.094 2.75C7.484 10.419 7 11.282 7 12.22c0 .328.078.64.156.937-.277-.031-1.277-.125-1.687-.125-.364 0-.926.086-1.375.188A8 8 0 0 1 4 12c0-4.41 3.59-8 8-8m-6.531 9.281c.394 0 1.593.14 1.75.156q.029.081.062.157c-.43-.04-1.261-.098-1.812-.031-.367.042-.836.175-1.25.28-.032-.124-.07-.245-.094-.374.438-.094 1.012-.188 1.344-.188m13.375.219c.398.004.761.07 1 .125-.012.066-.047.121-.063.188a5.8 5.8 0 0 0-1.156-.157c-.234-.004-.61.008-.937.031.015-.03.019-.062.03-.093.34-.047.774-.098 1.126-.094m-12.75.281c.562.004 1.09.043 1.312.063.524.976 1.582 1.699 3.219 2a3.2 3.2 0 0 0-1.031.906 9 9 0 0 1-.719.031c-.695 0-1.129-.62-1.5-1.156C7 15.09 6.539 15.031 6.281 15c-.261-.031-.351.117-.218.219.761.586 1.035 1.281 1.343 1.906.278.563.86.875 1.5.875h.125c-.02.11-.031.21-.031.313v1.093a8 8 0 0 1-4.719-5.343c.41-.102.871-.208 1.219-.25.16-.02.363-.036.594-.032m12.531.125c.45.012.848.098 1.094.156A7.98 7.98 0 0 1 16 18.907v-.593c0-.852-.672-1.946-1.625-2.47 1.582-.288 2.613-.98 3.156-1.905a12 12 0 0 1 1.094-.032M12.5 18c.273 0 .5.227.5.5v1.438A8 8 0 0 1 12 20v-1.5c0-.273.227-.5.5-.5m-2 1c.273 0 .5.227.5.5v.438a9 9 0 0 1-1-.188v-.25c0-.273.227-.5.5-.5m4 0c.242 0 .453.176.5.406a8 8 0 0 1-1 .344v-.25c0-.273.227-.5.5-.5"/></svg>
