<svg xmlns="http://www.w3.org/2000/svg" width="50" height="50" fill="#fff" viewBox="0 0 24 24"><path d="M4.5 3A3.515 3.515 0 0 0 1 6.5V18c0 1.645 1.355 3 3 3h4v-7.326l4 3.125 4-3.125V21h4c1.645 0 3-1.355 3-3V6.5C23 4.579 21.421 3 19.5 3a3.5 3.5 0 0 0-2.156.742L12 7.912l-5.344-4.17h-.002A3.5 3.5 0 0 0 4.5 3m0 2c.33 0 .643.098.924.318l.576.45v3.806L3 7.232V6.5C3 5.66 3.66 5 4.5 5m15 0c.84 0 1.5.66 1.5 1.5v.732l-3 2.342V5.768l.576-.45c.281-.22.594-.318.924-.318M8 7.328l4 3.121 4-3.12v3.808l-4 3.125-4-3.125zM3 9.77l3 2.341V19H4c-.565 0-1-.435-1-1zm18 0V18c0 .565-.435 1-1 1h-2v-6.889z"/></svg>
