<svg xmlns="http://www.w3.org/2000/svg" width="512" height="512" viewBox="0 0 256 256"><style>@media (prefers-color-scheme:light){#favicon-bg{fill:#eee}#favicon-logo{fill:#111}}</style><g stroke-miterlimit="10" font-family="none" font-size="none"><path id="favicon-bg" fill="#111" d="M16 288c-26.51 0-48-21.49-48-48V16c0-26.51 21.49-48 48-48h224c26.51 0 48 21.49 48 48v224c0 26.51-21.49 48-48 48z" style="mix-blend-mode:normal" transform="matrix(.8 0 0 .8 25.6 25.6)"/><path id="favicon-logo" fill="#eee" d="m29.125 7.344-12 34 3.75 1.312 12-34zM9.937 13.375 1.25 23.719.187 25l1.063 1.281 8.688 10.375 3.093-2.562L5.406 25 13 15.937zm30.126 0L37 15.938 44.594 25 37 34.063l3.094 2.562 8.625-10.344L49.78 25l-1.062-1.281z" style="mix-blend-mode:normal" transform="translate(25.6 25.6)scale(4.096)"/></g></svg>
